<?xml version="1.0" encoding="iso-8859-1"?>
<!-- Uploaded to: SVG Repo, www.svgrepo.com, Generator: SVG Repo Mixer Tools -->
<svg height="800px" width="800px" version="1.1" id="Layer_1" xmlns="http://www.w3.org/2000/svg" xmlns:xlink="http://www.w3.org/1999/xlink" 
	 viewBox="0 0 483.55 483.55" xml:space="preserve">
<g>
	<path style="fill:#E4C6A1;" d="M215.475,136.362h-26.1c-0.9,0-1.3-0.1-2.1-0.9l-15.5-15.6l-62.3,62.3l16.1,16.1l0.2,0.1
		c0.1,0.2,0.1,0.4,0.1,0.6v15.7l41,41l4.2-4.2l10.3-9l-15.8-15.8c-0.6-0.6-1-1.4-0.9-2.1c0-0.5,0.2-0.7,0.4-0.8l0.3-0.2l0.3-0.3
		c0.4-0.4,0.7-0.5,1-0.5c0.5,0,1.2,0.2,2,0.6l0.9,0.4c0.1,0.1,15.5,15.5,15.5,15.5l7.9-6.6h3.8v-10.3l-13.5-13.5
		c-0.6-0.6-0.9-1.2-0.9-1.7s0.3-1.1,0.9-1.7c0.6-0.6,1.2-0.9,1.7-0.9c0.3,0,0.6,0.1,1,0.4c1,1.7,2.8,2.8,5,2.8h5v-20.2
		c0-7.7,6.5-14.2,14.2-14.2c1.3,0,2,0,2.6,0.3l6.3,3.2l0.9-7c0.6-5,3.8-9.9,7.9-12.3l5.7-3.2L215.475,136.362z"/>
	<path style="fill:#E4C6A1;" d="M377.275,179.762l-62.3-62.3l-15.5,15.5c-0.8,0.8-1.2,0.9-2.1,0.9h-15.7l-34,34h12.1
		c7.7,0,14.2,6.5,14.2,14.2v8.1l7.2-3.6c0.5-0.3,1.3-0.3,2.6-0.3c8.2,0,15.1,6.3,15.8,14.4v8.3l6.6-2.2c0.4-0.1,0.9-0.2,1.3-0.2
		c0.1,0,0.2,0,0.3,0l0.2,0.2l0.4,0.4c0.3,0.3,0.9,0.9-0.1,3l-0.4,0.9c-0.1,0.1-8.1,8.1-8.1,8.1v27.7l23.2-23.2l0.2-0.3
		c0.1-0.1,0.3-0.4,0.9-0.4c0.7,0,1.4,0.3,2,0.9c0.6,0.6,0.9,1.2,0.9,1.7s-0.3,1.1-0.9,1.7l-24.7,24.7l28.6,1.5l31-31v-26
		c0,0,0.1-0.4,0.9-1.3L377.275,179.762z"/>
	<path style="fill:#E4C6A1;" d="M283.775,190.762c-5.1,0-9.8,4.7-9.8,9.8v69.6c0,1.2-1,2.2-2.2,2.2c-1.1,0-2-0.3-2.3-1.8l-0.3-1.3
		l-0.3-0.3c0-0.1,0-87.5,0-87.5c0-5.1-4.7-9.8-9.8-9.8s-9.8,4.7-9.8,9.8v88.8c0,1.2-1,2.2-2.2,2.2s-2.2-1-2.2-2.2v-100
		c0-5.1-4.7-9.8-9.8-9.8s-9.8,4.7-9.8,9.8v100.7c0,1.2-1,2.2-2.2,2.2c-1.1,0-2-0.3-2.3-1.8l-0.3-1.3l-0.3-0.3c0-0.1,0-81.1,0-81.1
		c0-5.1-4.7-9.8-9.8-9.8s-9.8,4.7-9.8,9.8v80.8c0,1.2-1,2.2-2.2,2.2s-2.2-1-2.2-2.2v-34.7l-21.4,19.6v44.2l17.5,18.3
		c0.8,0.8,0.9,1.2,0.9,2.1v22.6h88.4v-21.8c0-0.9,0.1-1.3,0.9-2.1l11.1-11.1v-106C293.575,195.462,288.875,190.762,283.775,190.762z
		"/>
</g>
<g>
	<path style="fill:#2FB4C2;" d="M157.075,91.262l-40.3,41.2l-0.2,0.3c-0.1,0.1-0.3,0.4-0.9,0.4c-0.7,0-1.4-0.3-2-0.9
		c-1.2-1.2-1.2-2.1,0-3.3l41.1-41.1l-64.7-64.7l-79.8,79.8l65.5,64.6l19.5-19.5c0.6-0.6,1.2-0.9,1.7-0.9s1.1,0.3,1.7,0.9
		c0.6,0.6,0.9,1.2,0.9,1.7s-0.3,1.1-0.9,1.7l-19.6,19.5l17.5,17.5l80.1-80.1L157.075,91.262z M116.875,75.262
		c0.6-0.6,1.2-0.9,1.7-0.9s1.1,0.3,1.7,0.9l9.6,9.6c1.2,1.2,1.2,2.1,0,3.3l-0.3,0.3l-0.2,0.3c-0.1,0.1-0.3,0.4-0.9,0.4
		c-0.7,0-1.4-0.3-2-0.9l-9.6-9.6C115.675,77.362,115.675,76.562,116.875,75.262z M105.875,64.262c-0.1,0.1-0.6,0.3-1.4,0.3
		s-1.6-0.2-2.3-0.6l-13.3-13.3c-0.6-0.6-0.9-1.2-0.9-1.7s0.3-1.1,0.9-1.7c0.6-0.6,1.2-0.9,1.7-0.9s1.1,0.3,1.7,0.9l13.6,13.6
		C107.075,62.162,107.075,62.962,105.875,64.262z"/>
	<path style="fill:#2FB4C2;" d="M364.375,120.662l0.2-0.3c0.1-0.1,0.3-0.4,0.9-0.4c0.7,0,1.4,0.3,1.9,0.9l40.3,41.2l65.6-64.7
		l-79.9-79.9l-64.7,64.7l19.5,19.5c0.6,0.6,0.9,1.2,0.9,1.7s-0.3,1.1-0.9,1.7s-1.2,0.9-1.7,0.9s-1.1-0.3-1.7-0.9l-19.5-19.5
		l-17.4,17.4l79.9,79.9l17.5-17.5l-41.1-41.1c-0.6-0.6-0.9-1.2-0.9-1.7s0.3-1.1,0.9-1.7L364.375,120.662z M432.075,109.662
		l13.6-13.6c0.6-0.6,1.2-0.9,1.7-0.9s1.1,0.3,1.7,0.9s0.9,1.2,0.9,1.7s-0.3,1.1-0.9,1.7l-13.6,13.6c-0.6,0.6-1.2,0.9-1.7,0.9
		s-1.1-0.3-1.7-0.9s-0.9-1.2-0.9-1.7C431.175,110.862,431.475,110.262,432.075,109.662z M407.275,134.462l10.7-10.7l0.2-0.3
		c0.1-0.1,0.3-0.4,0.9-0.4c0.7,0,1.4,0.3,2,0.9c0.6,0.6,0.9,1.2,0.9,1.7s-0.3,1.1-0.9,1.7l-10.7,10.7l-0.2,0.3
		c-0.1,0.1-0.3,0.4-0.9,0.4c-0.7,0-1.4-0.3-2-0.9c-0.6-0.6-0.9-1.2-0.9-1.7S406.675,135.062,407.275,134.462z"/>
	<path style="fill:#2FB4C2;" d="M269.375,371.163h27.4v-25.2h-113.2v25.2h57.8c1.2,0,2.2,1,2.2,2.2s-1,2.2-2.2,2.2h-57.8v91.6h113.2
		v-91.6h-27.4c-1.2,0-2.2-1-2.2-2.2S268.175,371.163,269.375,371.163z M203.575,448.563c0,1.2-1,2.2-2.2,2.2s-2.2-1-2.2-2.2v-19.2
		c0-1.2,1-2.2,2.2-2.2s2.2,1,2.2,2.2V448.563z M203.575,408.563c0,1.2-1,2.2-2.2,2.2s-2.2-1-2.2-2.2v-13.6c0-1.2,1-2.2,2.2-2.2
		s2.2,1,2.2,2.2V408.563z"/>
</g>
<g>
	<path style="fill:#42210B;" d="M438.975,116.562c-3.2,3.2-7.2,3.2-10.4,0c-3.2-3.2-3.2-7.2,0-10.4l13.6-13.6
		c3.2-3.2,7.2-3.2,10.4,0c3.2,3.2,3.2,7.2,0,10.4L438.975,116.562z"/>
	<path style="fill:#42210B;" d="M424.575,121.362c3.2,3.2,3.2,7.2,0,10.4l-9.6,9.6c-3.2,3.2-8,3.2-10.4,0c-3.2-3.2-3.2-7.2,0-10.4
		l9.6-9.6C416.575,118.162,421.375,118.162,424.575,121.362z"/>
	<path style="fill:#42210B;" d="M208.575,429.362v19.2c0,4-3.2,7.2-7.2,7.2s-7.2-3.2-7.2-7.2v-19.2c0-4,3.2-7.2,7.2-7.2
		C205.375,422.163,208.575,425.362,208.575,429.362z"/>
	<path style="fill:#42210B;" d="M208.575,394.962v13.6c0,4-3.2,7.2-7.2,7.2s-7.2-3.2-7.2-7.2v-13.6c0-4,3.2-7.2,7.2-7.2
		S208.575,390.962,208.575,394.962z"/>
	<path style="fill:#42210B;" d="M113.375,82.162c-3.2-3.2-3.2-7.2,0-10.4c3.2-3.2,8-3.2,10.4,0l9.6,9.6c3.2,3.2,3.2,7.2,0,10.4
		c-3.2,3.2-8,3.2-10.4,0L113.375,82.162z"/>
	<path style="fill:#42210B;" d="M109.375,57.362c3.2,3.2,3.2,7.2,0,10.4c-3.2,3.2-7.2,3.2-10.4,0l-13.6-13.6c-3.2-3.2-3.2-8,0-10.4
		c3.2-3.2,7.2-3.2,10.4,0L109.375,57.362z"/>
</g>
<g>
	<path style="fill:#1D9AAE;" d="M291.775,384.563l-11.2,49.6c-2.4,12-12.8,21.6-25.6,23.2l-36,4.8h72.8V384.563z"/>
	<path style="fill:#1D9AAE;" d="M339.075,73.962l38.6-18.8c11.6-5.8,24.9-5.8,36.5,0l20.7,10l-43.1-43.2L339.075,73.962z"/>
	<path style="fill:#1D9AAE;" d="M17.375,102.962l49.6,49.6l5.6,4.8c1.6,1.6-16-24-28-40.8c-5.6-8-6.4-19.2-1.6-28l16.8-28.8
		L17.375,102.962z"/>
</g>
<g>
	<path style="fill:#CC9966;" d="M147.475,220.962c-4.8-4.8-7.3-10.8-7.3-17.3v-4.8c0-4.6-1.7-11.2-6.6-15l-14.6-13.5l-14.3,14.3
		l15.7,14.7c0.8,0.8,0.9,1.2,0.9,1.2v15.7l41,41l11.1-11.1L147.475,220.962z"/>
	<path style="fill:#CC9966;" d="M196.575,313.362c1.6,1.6,2.4,3.2,2.4,5.6v17.6h78.4v-17.6c0-1.6,0.8-4,2.4-4.8l9.6-9.6v-37.6
		l-4,21.6c-0.8,4-2.4,8-5.6,10.4l0,0c-8,8-12,17.6-12,28l0,0h-64v-4.8c0-7.2-3.2-14.4-8-19.2l-3.2-3.2c-3.2-3.2-5.6-7.2-7.2-12
		l-5.6-20.8v29.6L196.575,313.362z"/>
	<path style="fill:#CC9966;" d="M313.075,112.762l-16.4,15.4c-0.8,0.8-1.3,0.9-1.3,0.9h-15.7l-34,34h12.1c1.5,0,4,0.5,6.4,1.3
		l2.7,0.9l22.7-19.2c2.2-1.4,4.3-2.2,5.8-2.2h8c7.8,0,15.3-3.1,22.5-9.2l0.1-0.1l4.5-4.5L313.075,112.762z"/>
</g>
<path style="fill:#42210B;" d="M386.975,176.562l10.3-10.3v-0.1l-37.5-37.5c-2.8-2.8-3-7.3-0.4-10.2c3.2-3.5,8.2-3.6,10.7-0.3
	l36.8,37.6h0.1l57.5-57.5v-0.1l-72.7-72.8h-0.1l-57.5,57.6v0.1l15.9,15.9c2.9,2.9,3,7.6,0.1,10.5c-3.2,3.2-7.2,3.2-10.4,0l-16-16
	h-0.1l-10.3,10.3v0.1L386.975,176.562L386.975,176.562z M278.975,182.162c1.6-0.8,3.1-0.8,4.7-0.8c10.6,0,19.3,8.6,19.3,19.2v1.5
	c0,0,0,0.1,0.1,0c2.4-0.8,5.6,0,7.1,1.6c2.4,2.4,2.4,5.6,0.8,8.8c0,0.8-0.8,1.6-1.6,2.4l-6.4,6.4l0,0v13.5c0,0,0.1,0.1,0.1,0
	l14.2-14.2c2.9-2.9,7.6-3,10.5-0.1c3.2,3.2,3.2,7.2,0,10.4l-16.7,16.7v0.1l15.1,0.8l0,0l28-28l0,0v-24c0-1.6,0.8-4,2.4-4.8l0,0
	l12-12v-0.1l-55.1-55.1h-0.1l-12,12c-1.6,1.6-3.2,2.4-5.6,2.4h-12l0,0l-23.9,23.9v0.1
	C270.275,162.262,278.975,170.962,278.975,182.162L278.975,182.162z M188.575,462.163h103.2l0,0v-81.5l0,0h-22c-4,0-7.5-3.1-7.5-7.1
	c-0.1-4.1,3.2-7.3,7.2-7.3h22.3l0,0v-15.3l0,0h-103.2l0,0v15.1l0,0h52.4c4,0,7.5,3.1,7.5,7.1c0.1,4.1-3.2,7.3-7.2,7.3h-52.8l0,0
	L188.575,462.163L188.575,462.163z M198.975,318.163v17.6l0,0h78.3l0,0v-16.8c0-1.6,0.8-4,2.4-5.6l9.6-9.6l0,0v-104
	c0-2.4-2.4-4.8-4.8-4.8s-4.8,2.4-4.8,4.8v69.6c0,4-3.2,7.2-7.2,7.2c-3.2,0-6.4-2.4-7.2-5.6c-0.8-0.8-0.8-2.4-0.8-3.2v-86.4
	c0-2.4-2.4-4.8-4.8-4.8s-4.8,2.4-4.8,4.8v88.5c0,4-3.1,7.5-7.1,7.5c-4.1,0.1-7.3-3.2-7.3-7.2v-0.8v-0.8v-98.4c0-2.4-2.4-4.8-4.8-4.8
	s-4.8,2.4-4.8,4.8v100c0,4-3.2,7.2-7.2,7.2c-3.2,0-6.4-2.4-7.2-5.6c-0.8-0.8-0.8-2.4-0.8-3.2v-80c0-2.4-2.4-4.8-4.8-4.8
	c-2.4,0-4.8,2.4-4.8,4.8v81.3c0,4-3.1,7.5-7.1,7.5c-4.1,0.1-7.3-3.2-7.3-7.2v-23.1c0,0,0-0.1-0.1,0l-11.9,9.5l0,0v40l0,0l16.8,16.8
	C198.175,314.962,198.975,316.563,198.975,318.163z M121.375,134.962c-3.2,3.2-8,3.2-10.4,0c-3.2-3.2-3.2-7.2,0-10.4l37.6-37.6v-0.1
	l-57.5-57.5h-0.1l-73.6,73.6v0.1l57.5,57.5h0.1l15.9-15.9c2.9-2.9,7.6-3,10.5-0.1c3.2,3.2,3.2,7.2,0,10.4l-16,16v0.1l10.3,10.3h0.1
	l72.7-72.7v-0.1l-10.3-10.3h-0.1L121.375,134.962z M115.775,214.962v-13.6l0,0l-9.6-9.6h-0.1l-4.7,4.7c-2.9,2.9-7.6,2.9-10.5,0
	l-88.7-88.7c-2.9-2.9-2.9-7.6,0-10.5l83.2-83.2c3.2-3.2,7.2-3.2,10.4,0l88.8,89.6c3.2,3.2,3.2,7.2,0,10.4l-2.4,2.4v0.1l10.4,10.4
	l0,0h24c2.4,0,4,0.8,4.8,2.4l0,0l24.8,24.8h0.1l28-28c1.6-1.6,3.2-2.4,5.6-2.4h13.6l0,0l9.6-9.6v-0.1l-4.7-4.7
	c-2.9-2.9-2.9-7.6,0-10.5l89.4-89.5c2.9-2.9,7.6-2.9,10.5,0l83.1,83.1c2.9,2.9,2.9,7.6,0,10.5l-88.8,88.8c-3.2,3.2-7.2,3.2-10.4,0
	l0,0l-2.4-1.6c0,0,0,0-0.1,0l-10.4,10.4l0,0v24c0,1.6-0.8,4-2.4,4.8l0,0l-32.8,32.8c0,0-0.8,0.8-2.4,0.8c0,0,0,0-0.8,0s-1.6,0-2.4,0
	l0,0l-25.5-1.6h-0.1v45.6c0,1.6-0.8,4-2.4,4.8l0,0l-8.8,10.4l0,0v13.5l0,0h7.1c4,0,7.2,3.2,7.2,7.2v126.3c0,4-3.2,7.2-7.2,7.2
	h-117.4c-4,0-7.2-3.2-7.2-7.2v-126.2c0-4,3.2-7.2,7.2-7.2h3.1l0,0v-14.3l0,0l-16.7-16.9c-1.6-1.6-2.4-3.2-2.4-4.8v-32l0,0
	l-47.2-47.2C116.575,218.962,115.775,217.362,115.775,214.962z M116.575,182.162L116.575,182.162l12,12c1.6,1.6,2.4,3.2,2.4,4.8
	v13.6l0,0l36,36c0,0,0,0,0.8-0.8l0,0l6.4-5.6v-0.1l-11.9-11.9c-2.8-2.8-2.9-7.5-0.1-10.3c2.4-2.5,5.3-3.3,8.6-1.7
	c0.8,0.3,1.9,1.6,2.7,2.4l12,12c0,0,0,0,0.1,0l4.8-4l0,0c0.8-0.6,1.6-1.3,1.6-2.4v-1.6l0,0l-11.9-11.9c-2.9-2.9-3-7.6-0.1-10.5
	c3.2-3.2,7.2-3.2,10.4,0l0,0c0,0,0.8,0,0.8,0.8l0,0v-15.2c0-11.2,8.8-19.2,19.2-19.2c1.6,0,3.2,0,4.7,0.8h0.1
	c0-7.1,4-12.7,10.3-15.9v-0.1l-11.9-11.9l0,0h-24c-2.4,0-4-0.8-5.6-2.4l-12-12h-0.1L116.575,182.162z"/>
</svg>